<svg width="21" height="21" viewBox="0 0 21 21" fill="none" xmlns="http://www.w3.org/2000/svg">
<path fill-rule="evenodd" clip-rule="evenodd" d="M12.0888 1.08952C11.221 0.221626 9.8139 0.221626 8.94606 1.08952L1.08876 8.94727C0.220949 9.81513 0.220989 11.2222 1.08885 12.09L8.94615 19.9468C9.81397 20.8146 11.2209 20.8146 12.0888 19.9468L19.9461 12.09C20.8139 11.2222 20.814 9.81513 19.9461 8.94727L12.0888 1.08952ZM10.5928 12.5934C10.0408 12.5934 9.59285 12.1454 9.59285 11.5934V6.59338C9.59285 6.04138 10.0408 5.59338 10.5928 5.59338C11.1448 5.59338 11.5928 6.04138 11.5928 6.59338V11.5934C11.5928 12.1454 11.1448 12.5934 10.5928 12.5934ZM9.59285 15.5934C9.59285 16.1454 10.0408 16.5934 10.5928 16.5934C11.1448 16.5934 11.5928 16.1454 11.5928 15.5934C11.5928 15.0414 11.1448 14.5934 10.5928 14.5934C10.0408 14.5934 9.59285 15.0414 9.59285 15.5934Z" fill="#42526E"/>
</svg>
