<svg width="18" height="18" viewBox="0 0 18 18" fill="none" xmlns="http://www.w3.org/2000/svg">
<path fill-rule="evenodd" clip-rule="evenodd" d="M9 18C13.9706 18 18 13.9706 18 9C18 4.02944 13.9706 0 9 0C4.02944 0 0 4.02944 0 9C0 13.9706 4.02944 18 9 18ZM8.89353 14.8738C8.34153 14.8738 7.89353 14.4258 7.89353 13.8738C7.89353 13.3218 8.34153 12.8738 8.89353 12.8738C9.44553 12.8738 9.89353 13.3218 9.89353 13.8738C9.89353 14.4258 9.44553 14.8738 8.89353 14.8738ZM6.12718 7.62357C6.63136 7.62357 7.03213 7.24389 7.03213 6.76624C7.03213 6.30083 7.22605 5.87216 7.58803 5.55373C7.95001 5.23529 8.41541 5.08832 8.9196 5.12506C9.82455 5.1863 10.5356 5.94565 10.5227 6.81523C10.5097 7.62357 9.92798 8.28494 9.12645 8.40742C8.4542 8.51764 8.00172 9.04429 8.00172 9.71791V10.9427C8.00172 11.4203 8.40248 11.8 8.90667 11.8C9.41086 11.8 9.81163 11.4203 9.81163 10.9427V10.0119C11.2596 9.60768 12.2938 8.32168 12.3326 6.83972C12.3713 5.05157 10.9364 3.54512 9.06181 3.4104C8.07929 3.33691 7.09677 3.65535 6.35988 4.29222C5.63591 4.9291 5.22222 5.82317 5.22222 6.76624C5.22222 7.23165 5.62299 7.62357 6.12718 7.62357Z" fill="#42526E"/>
</svg>
