<svg width="18" height="18" viewBox="0 0 18 18" fill="none" xmlns="http://www.w3.org/2000/svg">
<path fill-rule="evenodd" clip-rule="evenodd" d="M9 18C13.9706 18 18 13.9706 18 9C18 4.02944 13.9706 0 9 0C4.02944 0 0 4.02944 0 9C0 13.9706 4.02944 18 9 18ZM6.0375 8.15095C5.64698 7.76043 5.01381 7.76043 4.62329 8.15095C4.23277 8.54147 4.23277 9.17464 4.62329 9.56516L7.29289 12.2723C7.68342 12.6628 8.31658 12.6628 8.70711 12.2723L13.6899 7.30711C14.0805 6.91658 14.0805 6.28342 13.6899 5.89289C13.2994 5.50237 12.6663 5.50237 12.2757 5.89289L8 10.1509L6.0375 8.15095Z" fill="#42526E"/>
</svg>
