<svg width="20" height="18" viewBox="0 0 20 18" fill="none" xmlns="http://www.w3.org/2000/svg">
<path fill-rule="evenodd" clip-rule="evenodd" d="M8.10372 1.16412C8.87405 -0.166445 10.7951 -0.166442 11.5654 1.16413L19.0965 14.1724C19.8685 15.5057 18.9063 17.1745 17.3657 17.1745H2.30347C0.762803 17.1745 -0.199314 15.5057 0.572615 14.1724L8.10372 1.16412ZM9.89353 10.8738C9.34153 10.8738 8.89353 10.4258 8.89353 9.87381V4.87381C8.89353 4.32181 9.34153 3.87381 9.89353 3.87381C10.4455 3.87381 10.8935 4.32181 10.8935 4.87381V9.87381C10.8935 10.4258 10.4455 10.8738 9.89353 10.8738ZM8.89353 13.8738C8.89353 14.4258 9.34153 14.8738 9.89353 14.8738C10.4455 14.8738 10.8935 14.4258 10.8935 13.8738C10.8935 13.3218 10.4455 12.8738 9.89353 12.8738C9.34153 12.8738 8.89353 13.3218 8.89353 13.8738Z" fill="black"/>
</svg>
