<svg width="16" height="18" viewBox="0 0 16 18" fill="none" xmlns="http://www.w3.org/2000/svg">
<path d="M1 4.1998H2.6H15.4" stroke="#C2CBDA" stroke-linecap="round" stroke-linejoin="round"/>
<path d="M14.2996 6.59998C14.2996 6.32384 14.0758 6.09998 13.7996 6.09998C13.5235 6.09998 13.2996 6.32384 13.2996 6.59998H14.2996ZM3.09961 6.59998C3.09961 6.32384 2.87575 6.09998 2.59961 6.09998C2.32347 6.09998 2.09961 6.32384 2.09961 6.59998H3.09961ZM4.49954 4.2C4.49954 4.47614 4.7234 4.7 4.99954 4.7C5.27568 4.7 5.49954 4.47614 5.49954 4.2H4.49954ZM10.8995 4.2C10.8995 4.47614 11.1234 4.7 11.3995 4.7C11.6757 4.7 11.8995 4.47614 11.8995 4.2H10.8995ZM13.2996 6.59998V15.4H14.2996V6.59998H13.2996ZM13.2996 15.4C13.2996 16.0075 12.8071 16.5 12.1996 16.5V17.5C13.3594 17.5 14.2996 16.5598 14.2996 15.4H13.2996ZM12.1996 16.5H4.19961V17.5H12.1996V16.5ZM4.19961 16.5C3.5921 16.5 3.09961 16.0075 3.09961 15.4H2.09961C2.09961 16.5598 3.03981 17.5 4.19961 17.5V16.5ZM3.09961 15.4V6.59998H2.09961V15.4H3.09961ZM5.49954 4.2V2.6H4.49954V4.2H5.49954ZM5.49954 2.6C5.49954 1.99249 5.99203 1.5 6.59954 1.5V0.5C5.43974 0.5 4.49954 1.4402 4.49954 2.6H5.49954ZM6.59954 1.5H9.79954V0.5H6.59954V1.5ZM9.79954 1.5C10.4071 1.5 10.8995 1.99249 10.8995 2.6H11.8995C11.8995 1.4402 10.9593 0.5 9.79954 0.5V1.5ZM10.8995 2.6V4.2H11.8995V2.6H10.8995Z" fill="#C2CBDA"/>
<path d="M6.59922 8.2002V13.0002" stroke="#C2CBDA" stroke-linecap="round" stroke-linejoin="round"/>
<path d="M9.80039 8.2002V13.0002" stroke="#C2CBDA" stroke-linecap="round" stroke-linejoin="round"/>
</svg>
