<svg width="30" height="30" viewBox="0 0 30 30" fill="none" xmlns="http://www.w3.org/2000/svg">
<path fill-rule="evenodd" clip-rule="evenodd" d="M16.8855 14.4613C16.8855 13.3946 16.0236 12.5268 14.9636 12.5268C13.9036 12.5268 13.0409 13.3946 13.0409 14.4613C13.0409 15.5277 13.9036 16.3955 14.9636 16.3955C16.0236 16.3955 16.8855 15.5277 16.8855 14.4613ZM18.483 14.4613C18.483 16.4144 16.9042 18.0036 14.9636 18.0036C13.0226 18.0036 11.4434 16.4144 11.4434 14.4613C11.4434 12.5083 13.0226 10.9191 14.9636 10.9191C16.9042 10.9191 18.483 12.5083 18.483 14.4613ZM21.1837 12.0694C21.1837 11.4106 20.6513 10.8748 19.9971 10.8748H19.0314C18.3392 10.8748 17.7286 10.532 17.3771 9.95722L16.9374 9.24177H12.9894L12.5481 9.95923C12.1982 10.532 11.5876 10.8748 10.9166 10.8748H9.9301C9.2755 10.8748 8.74311 11.4106 8.74311 12.0694V17.6077C8.74311 18.2665 9.2755 18.8023 9.9301 18.8023H19.9971C20.6513 18.8023 21.1837 18.2665 21.1837 17.6077V12.0694ZM22.7812 12.0694V17.6077C22.7812 19.1528 21.5323 20.41 19.9971 20.41H9.9301C8.39485 20.41 7.14556 19.1528 7.14556 17.6077V12.0694C7.14556 10.5244 8.39485 9.26709 9.9301 9.26709H10.8954C11.0284 9.26709 11.1303 9.21041 11.1882 9.11475L11.8655 8.01465C12.0109 7.77791 12.2677 7.63401 12.5445 7.63401H17.3823C17.6591 7.63401 17.9159 7.77791 18.0613 8.01465L18.737 9.11274C18.7965 9.21042 18.8984 9.26709 19.0102 9.26709H19.9971C21.5323 9.26709 22.7812 10.5244 22.7812 12.0694ZM26.3953 5.49811C23.5964 2.00366 19.4328 0 14.9708 0H14.9636C13.6013 0 12.247 0.190921 10.9374 0.567135C10.5132 0.68852 10.2676 1.13347 10.3886 1.56032C10.5092 1.98718 10.9505 2.23518 11.3759 2.11259C12.5425 1.77777 13.7495 1.60775 14.964 1.60775H14.9704C18.9467 1.60775 22.6574 3.39356 25.1516 6.50698C27.3431 9.24257 28.3443 12.6731 27.9717 16.1672C27.6626 19.0639 26.4376 21.7147 24.4798 23.7939L24.4802 21.6898C24.4802 21.2461 24.1224 20.8859 23.6815 20.8859C23.2401 20.8859 22.8827 21.2461 22.8827 21.6898L22.8819 25.6308C22.8819 25.6421 22.8847 25.6529 22.8847 25.6638C22.8859 25.6919 22.8895 25.7196 22.8935 25.7474C22.8971 25.7731 22.9015 25.798 22.907 25.8225C22.913 25.847 22.921 25.8712 22.9294 25.8953C22.9386 25.9218 22.9482 25.9475 22.9602 25.9728C22.9697 25.9933 22.9813 26.0134 22.9929 26.0335C23.0081 26.0601 23.0245 26.0858 23.0424 26.1099C23.0488 26.1183 23.0524 26.1272 23.0588 26.1352C23.066 26.1437 23.0744 26.1497 23.0816 26.1581C23.1067 26.1871 23.1343 26.2136 23.1634 26.2389C23.1786 26.2522 23.1938 26.2655 23.2098 26.2775C23.2401 26.3 23.2725 26.3189 23.306 26.337C23.322 26.3454 23.3372 26.3555 23.3536 26.3627C23.3931 26.3808 23.4342 26.3937 23.477 26.4053C23.4886 26.4086 23.5001 26.4134 23.5121 26.4162C23.5664 26.4274 23.6223 26.4347 23.6803 26.4347L27.5939 26.4359H27.5943C28.0356 26.4359 28.393 26.0757 28.393 25.6324C28.393 25.1883 28.036 24.8281 27.5947 24.8281L25.708 24.8277C27.8671 22.5053 29.217 19.5571 29.5601 16.3388C29.9782 12.4175 28.8543 8.56772 26.3953 5.49811ZM19.539 28.0046C19.66 28.4319 19.4144 28.8765 18.9906 28.9986C17.6511 29.3841 16.2896 29.571 14.9436 29.571C10.5783 29.571 6.36635 27.6063 3.53228 24.0673C-1.10063 18.2834 -0.67408 10.0215 4.22443 4.73845L2.33212 4.73805C1.8908 4.73805 1.53374 4.37751 1.53374 3.93377C1.53374 3.49003 1.89119 3.1303 2.33252 3.1303L6.24853 3.1315C6.26171 3.1315 6.27529 3.13431 6.28847 3.13512C6.31603 3.13673 6.34318 3.13914 6.37074 3.14356C6.3947 3.14758 6.41827 3.152 6.44223 3.15843C6.46859 3.16486 6.49415 3.1725 6.52011 3.18215C6.54288 3.19059 6.56485 3.19943 6.58721 3.21028C6.61157 3.22194 6.63554 3.2344 6.6595 3.24887C6.68067 3.26213 6.70144 3.2762 6.7218 3.29107C6.74257 3.30675 6.76294 3.32363 6.78291 3.34171C6.7925 3.35056 6.80408 3.35739 6.81326 3.36663C6.82405 3.37749 6.83164 3.39035 6.84162 3.4012C6.85081 3.41165 6.86119 3.41969 6.86998 3.43054C6.87717 3.43979 6.88196 3.45024 6.88915 3.45988C6.90592 3.4828 6.9207 3.50611 6.93468 3.53063C6.94786 3.55273 6.95984 3.57564 6.97102 3.59896C6.98181 3.62227 6.99059 3.64598 6.99898 3.6701C7.00817 3.69582 7.01615 3.72155 7.02254 3.74807C7.02814 3.77179 7.03213 3.79631 7.03572 3.82042C7.03972 3.84816 7.04251 3.87468 7.04331 3.90202C7.04411 3.91327 7.04691 3.92412 7.04691 3.93578L7.04491 7.87638C7.04451 8.32052 6.68746 8.67986 6.24613 8.67986H6.24573C5.80481 8.67945 5.44696 8.31972 5.44735 7.87558L5.44855 5.77625C1.03211 10.4813 0.630723 17.883 4.77638 23.0588C8.08093 27.1843 13.4883 28.909 18.5513 27.4528C18.9759 27.3302 19.418 27.5782 19.539 28.0046Z" fill="#8065EC"/>
</svg>
