<svg width="16" height="16" viewBox="0 0 16 16" fill="none" xmlns="http://www.w3.org/2000/svg">
<path fill-rule="evenodd" clip-rule="evenodd" d="M9.54696 2.58582C8.7659 1.80473 7.49952 1.80473 6.71847 2.58581L2.58576 6.71869C1.80472 7.49976 1.80475 8.76611 2.58584 9.54714L6.71855 13.6795C7.49959 14.4605 8.76584 14.4605 9.54687 13.6795L13.6796 9.54714C14.4607 8.76611 14.4607 7.49977 13.6797 6.71869L9.54696 2.58582ZM7.99997 9.71824C7.57301 9.71824 7.2265 9.37173 7.2265 8.94478V5.07746C7.2265 4.65051 7.57301 4.304 7.99997 4.304C8.42692 4.304 8.77343 4.65051 8.77343 5.07746V8.94478C8.77343 9.37173 8.42692 9.71824 7.99997 9.71824ZM7.2265 11.2652C7.2265 11.6922 7.57301 12.0387 7.99997 12.0387C8.42692 12.0387 8.77343 11.6922 8.77343 11.2652C8.77343 10.8383 8.42692 10.4918 7.99997 10.4918C7.57301 10.4918 7.2265 10.8383 7.2265 11.2652Z" fill="#EF2F00"/>
</svg>
