<svg width="16" height="18" viewBox="0 0 16 18" fill="none" xmlns="http://www.w3.org/2000/svg">
<path d="M1 4.1998H2.6H15.4" stroke="#C2CBDA" stroke-linecap="round" stroke-linejoin="round"/>
<path d="M14.2996 6.59998C14.2996 6.32384 14.0757 6.09998 13.7996 6.09998C13.5234 6.09998 13.2996 6.32384 13.2996 6.59998H14.2996ZM3.09958 6.59998C3.09958 6.32384 2.87572 6.09998 2.59958 6.09998C2.32344 6.09998 2.09958 6.32384 2.09958 6.59998H3.09958ZM4.49951 4.2C4.49951 4.47614 4.72337 4.7 4.99951 4.7C5.27565 4.7 5.49951 4.47614 5.49951 4.2H4.49951ZM10.8995 4.2C10.8995 4.47614 11.1234 4.7 11.3995 4.7C11.6757 4.7 11.8995 4.47614 11.8995 4.2H10.8995ZM13.2996 6.59998V15.4H14.2996V6.59998H13.2996ZM13.2996 15.4C13.2996 16.0075 12.8071 16.5 12.1996 16.5V17.5C13.3594 17.5 14.2996 16.5598 14.2996 15.4H13.2996ZM12.1996 16.5H4.19958V17.5H12.1996V16.5ZM4.19958 16.5C3.59207 16.5 3.09958 16.0075 3.09958 15.4H2.09958C2.09958 16.5598 3.03978 17.5 4.19958 17.5V16.5ZM3.09958 15.4V6.59998H2.09958V15.4H3.09958ZM5.49951 4.2V2.6H4.49951V4.2H5.49951ZM5.49951 2.6C5.49951 1.99249 5.992 1.5 6.59951 1.5V0.5C5.43971 0.5 4.49951 1.4402 4.49951 2.6H5.49951ZM6.59951 1.5H9.79951V0.5H6.59951V1.5ZM9.79951 1.5C10.407 1.5 10.8995 1.99249 10.8995 2.6H11.8995C11.8995 1.4402 10.9593 0.5 9.79951 0.5V1.5ZM10.8995 2.6V4.2H11.8995V2.6H10.8995Z" fill="#C2CBDA"/>
<path d="M6.59922 8.2002V13.0002" stroke="#C2CBDA" stroke-linecap="round" stroke-linejoin="round"/>
<path d="M9.80039 8.2002V13.0002" stroke="#C2CBDA" stroke-linecap="round" stroke-linejoin="round"/>
</svg>
